<?xml version="1.0" encoding="UTF-8"?>
<svg xmlns="http://www.w3.org/2000/svg" version="1.1" viewBox="0 0 30 30">
  <defs>
    <style>
      .cls-1 {
        display: none;
      }

      .cls-2 {
        fill: none;
        stroke: #fff;
        stroke-miterlimit: 10;
        stroke-width: 2px;
      }
    </style>
  </defs>
  <!-- Generator: Adobe Illustrator 28.7.1, SVG Export Plug-In . SVG Version: 1.2.0 Build 142)  -->
  <g>
    <g id="Lag_1">
      <g id="Lag_1-2" data-name="Lag_1">
        <g id="Generativt_objekt">
          <g>
            <g id="Background" class="cls-1">
              <rect class="cls-2" x="1.8" y="2.1" width="26" height="26"/>
            </g>
            <g>
              <path class="cls-2" d="M19.5,18h.2c.7.9,4.8,4.7,5.1,5.1.8,1.2-.6,2.9-2,2-.4-.2-4.3-4.3-5.1-5.1,0,0,0-.1,0-.2,0-.1,1.8-1.9,1.9-1.9h0Z"/>
              <path class="cls-2" d="M18,17.2l.8.8-1.1,1.1c-1.1-1.1-.8-.6.3-1.9Z"/>
            </g>
          </g>
          <path class="cls-2" d="M11.2,5.4c4.8-.4,8.7,4.3,7.1,8.9-2,5.7-9.8,6.2-12.6.8-2.1-4.2.8-9.3,5.5-9.7Z"/>
        </g>
      </g>
    </g>
  </g>
</svg>